#!OML:ASF F:\VICON\USERDATA\INSTALL\rory3\rory3.ASF
:FULLY-SPECIFIED
:DEGREES
1961
root 1.27346 15.5982 -0.725192 2.74855 -9.3792 11.57
lowerback 21.2304 -1.08813 10.6563
upperback 2.53049 2.2965 13.1649
thorax -9.35852 0.963554 8.15759
lowerneck -12.0638 -6.23343 -4.80116
upperneck 22.781 -10.8162 12.3667
head 10.2226 -4.06133 3.78811
rclavicle 2.54444e-014 9.22361e-014
rhumerus 13.7607 -41.5383 -26.8643
rradius 58.5495
rwrist 23.263
rhand 15.4797 4.25651
rfingers 7.12502
rthumb 40.303 -20.8774
lclavicle 2.54444e-014 9.22361e-014
lhumerus -83.0771 -49.7551 119.143
lradius 99.0158
lwrist 25.382
lhand 13.8737 16.7378
lfingers 7.12502
lthumb 38.7905 42.3175
rfemur -25.5054 15.7183 -2.34544
rtibia 41.8325
rfoot -17.344 -10.6532
rtoes -21.6989
lfemur -13.7696 0.836431 -32.9773
ltibia 25.9358
lfoot -12.125 4.73431
ltoes -6.78646
1962
root 1.27649 15.6054 -0.713706 2.68946 -9.12032 11.5801
lowerback 21.1581 -1.08811 10.7665
upperback 2.46334 2.33016 13.2388
thorax -9.39874 0.97794 8.17589
lowerneck -12.1913 -6.08523 -4.57403
upperneck 22.8487 -10.7564 12.716
head 10.2783 -3.96929 3.88269
rclavicle -2.22639e-014 1.90833e-014
rhumerus 13.3278 -41.8899 -26.5204
rradius 58.766
rwrist 23.2741
rhand 15.5982 4.34255
rfingers 7.12502
rthumb 40.4145 -20.7571
lclavicle -2.22639e-014 1.90833e-014
lhumerus -82.9882 -49.8526 119.242
lradius 98.9437
lwrist 25.3025
lhand 13.86 16.7005
lfingers 7.12502
lthumb 38.7775 42.2839
rfemur -25.1109 15.6013 -2.30643
rtibia 41.5918
rfoot -17.3065 -10.7828
rtoes -22.1106
lfemur -13.4033 0.653806 -33.0001
ltibia 25.4866
lfoot -11.9192 4.6881
ltoes -6.70352
1963
root 1.27918 15.6165 -0.703221 2.6533 -8.95595 11.5714
lowerback 21.0878 -1.06894 10.8164
upperback 2.43538 2.37222 13.3651
thorax -9.40089 1.00037 8.28677
lowerneck -12.3368 -5.9141 -4.30035
upperneck 22.8185 -10.622 12.9184
head 10.2818 -3.85842 3.92431
rclavicle 4.29375e-014 -5.40694e-014
rhumerus 13.1492 -42.1725 -26.2644
rradius 58.8605
rwrist 23.2302
rhand 15.6325 4.30146
rfingers 7.12502
rthumb 40.4466 -20.7883
lclavicle 4.29375e-014 -5.40694e-014
lhumerus -82.8163 -49.8796 119.311
lradius 98.874
lwrist 25.2671
lhand 13.8116 16.6848
lfingers 7.12502
lthumb 38.7318 42.2811
rfemur -24.8392 15.5814 -2.2594
rtibia 41.3648
rfoot -17.2069 -10.9596
rtoes -22.3795
lfemur -13.0889 0.551953 -32.9983
ltibia 25.0645
lfoot -11.7999 4.66175
ltoes -6.75452
1964
root 1.28283 15.627 -0.695053 2.63253 -8.77095 11.4658
lowerback 21.0233 -1.05825 10.9478
upperback 2.42426 2.4265 13.56
thorax -9.38891 1.02738 8.43058
lowerneck -12.4643 -5.77309 -4.11273
upperneck 22.7057 -10.4961 13.109
head 10.2566 -3.76413 3.97357
rclavicle -4.6118e-014 -9.22361e-014
rhumerus 13.0931 -42.4004 -25.9588
rradius 58.8411
rwrist 23.1623
rhand 15.5087 4.12019
rfingers 7.12502
rthumb 40.3303 -21.0054
lclavicle -4.6118e-014 -9.22361e-014
lhumerus -82.5779 -49.8804 119.417
lradius 98.7207
lwrist 25.1854
lhand 13.7693 16.816
lfingers 7.12502
lthumb 38.692 42.4236
rfemur -24.5641 15.5727 -2.1083
rtibia 41.15
rfoot -17.1306 -11.1376
rtoes -22.2519
lfemur -12.8044 0.427389 -32.8903
ltibia 24.6758
lfoot -11.7029 4.60446
ltoes -6.90952
1965
root 1.28663 15.6324 -0.689696 2.62653 -8.60004 11.4817
lowerback 21.0091 -1.01721 10.9822
upperback 2.3702 2.51458 13.7242
thorax -9.45928 1.07301 8.58858
lowerneck -12.5893 -5.65154 -3.96687
upperneck 22.6724 -10.3954 13.2787
head 10.2631 -3.68366 4.02095
rclavicle 4.29375e-014 0
rhumerus 12.9659 -42.6326 -25.6286
rradius 58.8568
rwrist 23.1784
rhand 15.4391 4.01543
rfingers 7.12502
rthumb 40.2648 -21.1302
lclavicle 4.29375e-014 0
lhumerus -82.3874 -49.8532 119.54
lradius 98.5393
lwrist 25.0519
lhand 13.8464 16.7997
lfingers 7.12502
lthumb 38.7647 42.3868
rfemur -24.3508 15.5398 -2.1174
rtibia 40.953
rfoot -17.1266 -11.2217
rtoes -21.7009
lfemur -12.5834 0.362534 -32.9238
ltibia 24.2987
lfoot -11.464 4.53312
ltoes -6.87215
1966
root 1.29092 15.6379 -0.683503 2.59928 -8.50812 11.5294
lowerback 21.0108 -0.97322 11.0464
upperback 2.33723 2.60682 13.8418
thorax -9.51042 1.11773 8.67073
lowerneck -12.58 -5.50045 -3.84296
upperneck 22.5004 -10.247 13.5258
head 10.1943 -3.58724 4.10601
rclavicle 4.77083e-015 1.27222e-014
rhumerus 12.8886 -42.9629 -25.484
rradius 58.8922
rwrist 23.3239
rhand 15.4282 4.05598
rfingers 7.12502
rthumb 40.2546 -21.0928
lclavicle 4.77083e-015 1.27222e-014
lhumerus -82.2316 -49.7893 119.546
lradius 98.454
lwrist 24.8794
lhand 13.9966 16.8289
lfingers 7.12502
lthumb 38.9063 42.3757
rfemur -24.151 15.5522 -2.17333
rtibia 40.7441
rfoot -17.0918 -11.2628
rtoes -21.3295
lfemur -12.3742 0.32144 -32.9956
ltibia 23.9833
lfoot -11.2687 4.50957
ltoes -6.64983
1967
root 1.29868 15.6439 -0.674714 2.53397 -8.43269 11.5235
lowerback 21.0149 -0.950315 11.2428
upperback 2.33987 2.69532 13.9694
thorax -9.51637 1.15542 8.68849
lowerneck -12.4941 -5.31523 -3.75586
upperneck 22.2022 -10.037 13.8344
head 10.0644 -3.46896 4.22571
rclavicle -2.70347e-014 4.77083e-014
rhumerus 12.7944 -43.2823 -25.293
rradius 58.888
rwrist 23.4033
rhand 15.3386 4.01818
rfingers 7.12502
rthumb 40.1702 -21.1563
lclavicle -2.70347e-014 4.77083e-014
lhumerus -82.0952 -49.7736 119.603
lradius 98.3752
lwrist 24.7248
lhand 13.9068 16.8653
lfingers 7.12502
lthumb 38.8217 42.4362
rfemur -23.8593 15.551 -2.16434
rtibia 40.5276
rfoot -17.1061 -11.267
rtoes -21.4984
lfemur -12.1038 0.241347 -33.0194
ltibia 23.688
lfoot -11.1913 4.56915
ltoes -6.66683
1968
root 1.30692 15.6472 -0.666256 2.47362 -8.40105 11.5541
lowerback 21.068 -0.930118 11.3902
upperback 2.35167 2.77859 14.107
thorax -9.5414 1.19275 8.75017
lowerneck -12.5096 -5.12736 -3.65763
upperneck 22.0207 -9.81164 14.0183
head 9.98585 -3.34668 4.301
rclavicle -1.90833e-014 -5.725e-014
rhumerus 12.7439 -43.5305 -25.1177
rradius 58.889
rwrist 23.4217
rhand 15.3455 3.95819
rfingers 7.12502
rthumb 40.1768 -21.2143
lclavicle -1.90833e-014 -5.725e-014
lhumerus -81.8799 -49.6478 119.551
lradius 98.2978
lwrist 24.5887
lhand 13.8174 16.8238
lfingers 7.12502
lthumb 38.7373 42.4185
rfemur -23.5913 15.5706 -2.20704
rtibia 40.324
rfoot -17.1382 -11.2601
rtoes -22.0174
lfemur -11.8524 0.167843 -33.0837
ltibia 23.3936
lfoot -11.17 4.62293
ltoes -6.70095
1969
root 1.31365 15.6516 -0.660737 2.44058 -8.37447 11.6211
lowerback 21.1395 -0.919879 11.4362
upperback 2.35439 2.83594 14.2805
thorax -9.59282 1.2234 8.92397
lowerneck -12.4978 -4.92902 -3.63444
upperneck 21.8989 -9.54869 14.1407
head 9.91832 -3.21869 4.37375
rclavicle -1.11319e-014 -6.04305e-014
rhumerus 12.9033 -43.6749 -25.1091
rradius 58.9136
rwrist 23.6281
rhand 15.4122 3.86668
rfingers 7.12502
rthumb 40.2395 -21.2867
lclavicle -1.11319e-014 -6.04305e-014
lhumerus -81.6599 -49.3693 119.488
lradius 98.2449
lwrist 24.4745
lhand 13.8056 16.8027
lfingers 7.12502
lthumb 38.7262 42.4006
rfemur -23.4139 15.5862 -2.29672
rtibia 40.1412
rfoot -17.1188 -11.2833
rtoes -22.3373
lfemur -11.6559 0.124606 -33.1845
ltibia 23.1119
lfoot -11.069 4.63663
ltoes -6.41835
1970
root 1.32133 15.6533 -0.655703 2.42296 -8.35292 11.7725
lowerback 21.1666 -0.918802 11.4351
upperback 2.35062 2.85996 14.4288
thorax -9.62524 1.23997 9.10264
lowerneck -12.5074 -4.73185 -3.6106
upperneck 21.901 -9.28563 14.1772
head 9.89352 -3.09287 4.41829
rclavicle 3.65764e-014 -6.67916e-014
rhumerus 13.2512 -43.7747 -25.2471
rradius 58.8343
rwrist 23.9316
rhand 15.4258 3.81541
rfingers 7.12502
rthumb 40.2523 -21.334
lclavicle 3.65764e-014 -6.67916e-014
lhumerus -81.5436 -49.1001 119.499
lradius 98.218
lwrist 24.5067
lhand 13.7193 16.8938
lfingers 7.12502
lthumb 38.6448 42.5147
rfemur -23.3202 15.5308 -2.49819
rtibia 40.0078
rfoot -17.033 -11.2808
rtoes -22.6242
lfemur -11.4984 0.0939816 -33.3827
ltibia 22.8398
lfoot -10.9571 4.67402
ltoes -5.69086
1971
root 1.33058 15.6557 -0.649852 2.35775 -8.35368 11.8269
lowerback 21.231 -0.914874 11.597
upperback 2.38806 2.92129 14.5544
thorax -9.62398 1.266 9.14748
lowerneck -12.6182 -4.56994 -3.46534
upperneck 21.9155 -9.0981 14.2002
head 9.89566 -2.9875 4.42551
rclavicle 1.27222e-014 1.24042e-013
rhumerus 13.39 -43.9424 -25.2357
rradius 58.7571
rwrist 24.1685
rhand 15.4702 3.9496
rfingers 7.12502
rthumb 40.294 -21.1871
lclavicle 1.27222e-014 1.24042e-013
lhumerus -81.5274 -49.011 119.512
lradius 98.258
lwrist 24.6717
lhand 13.5817 17.0778
lfingers 7.12502
lthumb 38.515 42.735
rfemur -23.1811 15.5138 -2.57471
rtibia 39.9238
rfoot -17.0103 -11.2459
rtoes -22.7037
lfemur -11.2447 0.0938451 -33.47
ltibia 22.5381
lfoot -10.8701 4.69891
ltoes -5.24318
1972
root 1.33953 15.6587 -0.644711 2.28239 -8.38633 11.9037
lowerback 21.2962 -0.883791 11.7517
upperback 2.44972 3.00746 14.645
thorax -9.59437 1.30294 9.14313
lowerneck -12.8584 -4.43865 -3.27331
upperneck 22.0074 -8.97619 14.2167
head 9.95608 -2.89958 4.41429
rclavicle -1.27222e-014 -1.01778e-013
rhumerus 13.417 -44.1687 -25.1623
rradius 58.6396
rwrist 24.4159
rhand 15.3985 4.21495
rfingers 7.12502
rthumb 40.2266 -20.9423
lclavicle -1.27222e-014 -1.01778e-013
lhumerus -81.5507 -49.0075 119.509
lradius 98.2983
lwrist 24.8036
lhand 13.4605 17.1121
lfingers 7.12502
lthumb 38.4006 42.8012
rfemur -23.0761 15.5716 -2.67788
rtibia 39.8778
rfoot -17.0453 -11.2405
rtoes -22.8101
lfemur -10.9867 0.13938 -33.5797
ltibia 22.2174
lfoot -10.7591 4.67327
ltoes -5.42854
1973
root 1.34647 15.6593 -0.641469 2.20708 -8.45319 12.1527
lowerback 21.367 -0.843819 11.734
upperback 2.50708 3.06424 14.699
thorax -9.57634 1.33245 9.20136
lowerneck -13.1099 -4.28491 -3.16268
upperneck 22.1743 -8.8125 14.2143
head 10.0434 -2.79787 4.41863
rclavicle 1.74931e-014 0
rhumerus 13.5255 -44.2452 -25.1347
rradius 58.5221
rwrist 24.5517
rhand 15.3378 4.20492
rfingers 7.12502
rthumb 40.1695 -20.9698
lclavicle 1.74931e-014 0
lhumerus -81.563 -48.9701 119.458
lradius 98.3964
lwrist 24.88
lhand 13.3879 17.079
lfingers 7.12502
lthumb 38.3321 42.7871
rfemur -23.0353 15.6351 -2.98502
rtibia 39.8497
rfoot -17.0898 -11.2348
rtoes -22.8903
lfemur -10.7632 0.234358 -33.8662
ltibia 21.8809
lfoot -10.6232 4.61161
ltoes -5.37942
1974
root 1.35505 15.6595 -0.637911 2.15168 -8.56675 12.3847
lowerback 21.4308 -0.802569 11.7316
upperback 2.59159 3.12037 14.7748
thorax -9.52369 1.36168 9.27556
lowerneck -13.279 -4.12956 -3.06701
upperneck 22.2079 -8.61512 14.187
head 10.0626 -2.69446 4.41795
rclavicle 0 1.20861e-013
rhumerus 13.658 -44.1624 -25.015
rradius 58.4223
rwrist 24.4664
rhand 15.4339 3.97042
rfingers 7.12502
rthumb 40.2599 -21.1767
lclavicle 0 1.20861e-013
lhumerus -81.5775 -48.8553 119.369
lradius 98.5503
lwrist 24.8894
lhand 13.3596 16.9674
lfingers 7.12502
lthumb 38.3054 42.6829
rfemur -23.0407 15.6789 -3.28675
rtibia 39.8395
rfoot -17.1219 -11.1692
rtoes -22.9342
lfemur -10.5771 0.342282 -34.1461
ltibia 21.5566
lfoot -10.4731 4.61383
ltoes -5.2906
1975
root 1.36373 15.66 -0.63411 2.08474 -8.70253 12.5965
lowerback 21.5411 -0.752439 11.7638
upperback 2.6825 3.20259 14.8325
thorax -9.48827 1.40066 9.30107
lowerneck -13.4583 -4.02725 -2.8685
upperneck 22.2303 -8.49841 14.0941
head 10.0812 -2.62567 4.36422
rclavicle -3.18055e-015 3.18055e-015
rhumerus 13.7229 -44.156 -24.9113
rradius 58.3311
rwrist 24.4838
rhand 15.4368 3.90971
rfingers 7.12502
rthumb 40.2626 -21.2366
lclavicle -3.18055e-015 3.18055e-015
lhumerus -81.6916 -48.8182 119.375
lradius 98.6573
lwrist 24.9184
lhand 13.223 16.8492
lfingers 7.12502
lthumb 38.1764 42.6002
rfemur -23.0708 15.7789 -3.56014
rtibia 39.8689
rfoot -17.1145 -11.1685
rtoes -23.1867
lfemur -10.3972 0.512191 -34.3981
ltibia 21.2677
lfoot -10.3404 4.57369
ltoes -5.41508
